HIERARCHY
ROOT root
{
	OFFSET 0.000000 0.000000 0.000000
	CHANNELS 6 Xposition Yposition Zposition Zrotation Yrotation Xrotation
	JOINT lhip
	{
		OFFSET 0.058581 -0.082280 -0.017664
		CHANNELS 3 Zrotation Yrotation Xrotation
		JOINT lknee
		{
			OFFSET 0.043451 -0.386469 0.008037
			CHANNELS 3 Zrotation Yrotation Xrotation
			JOINT lankle
			{
				OFFSET -0.014790 -0.426874 -0.037428
				CHANNELS 3 Zrotation Yrotation Xrotation
				JOINT ltoe
				{
					OFFSET 0.041054 -0.060286 0.122042
					CHANNELS 3 Zrotation Yrotation Xrotation
					End Site
					{
						OFFSET 0.000000 0.000000 0.000000
					}
				}
			}
		}
	}
	JOINT rhip
	{
		OFFSET -0.060310 -0.090513 -0.013543
		CHANNELS 3 Zrotation Yrotation Xrotation
		JOINT rknee
		{
			OFFSET -0.043257 -0.383688 -0.004843
			CHANNELS 3 Zrotation Yrotation Xrotation
			JOINT rankle
			{
				OFFSET 0.019056 -0.420046 -0.034562
				CHANNELS 3 Zrotation Yrotation Xrotation
				JOINT rtoe
				{
					OFFSET -0.034840 -0.062106 0.130323
					CHANNELS 3 Zrotation Yrotation Xrotation
					End Site
					{
						OFFSET 0.000000 0.000000 0.000000
					}
				}
			}
		}
	}
	JOINT lowerback
	{
		OFFSET 0.004439 0.124404 -0.038385
		CHANNELS 3 Zrotation Yrotation Xrotation
		JOINT upperback
		{
			OFFSET 0.004488 0.137956 0.026820
			CHANNELS 3 Zrotation Yrotation Xrotation
			JOINT chest
			{
				OFFSET -0.002265 0.056032 0.002855
				CHANNELS 3 Zrotation Yrotation Xrotation
				JOINT lowerneck
				{
					OFFSET -0.013390 0.211636 -0.033468
					CHANNELS 3 Zrotation Yrotation Xrotation
					JOINT upperneck
					{
						OFFSET 0.010113 0.088937 0.050410
						CHANNELS 3 Zrotation Yrotation Xrotation
						End Site
						{
							OFFSET 0.000000 0.000000 0.000000
						}
					}
				}
				JOINT lclavicle
				{
					OFFSET 0.071702 0.114000 -0.018898
					CHANNELS 3 Zrotation Yrotation Xrotation
					JOINT lshoulder
					{
						OFFSET 0.122921 0.045205 -0.019046
						CHANNELS 3 Zrotation Yrotation Xrotation
						JOINT lelbow
						{
							OFFSET 0.255332 -0.015649 -0.022946
							CHANNELS 3 Zrotation Yrotation Xrotation
							JOINT lwrist
							{
								OFFSET 0.265709 0.012698 -0.007375
								CHANNELS 3 Zrotation Yrotation Xrotation
								End Site
								{
									OFFSET 0.000000 0.000000 0.000000
								}
							}
						}
					}
				}
				JOINT rclavicle
				{
					OFFSET -0.082954 0.112472 -0.023707
					CHANNELS 3 Zrotation Yrotation Xrotation
					JOINT rshoulder
					{
						OFFSET -0.113228 0.046853 -0.008472
						CHANNELS 3 Zrotation Yrotation Xrotation
						JOINT relbow
						{
							OFFSET -0.260127 -0.014369 -0.031269
							CHANNELS 3 Zrotation Yrotation Xrotation
							JOINT rwrist
							{
								OFFSET -0.269108 0.006794 -0.006027
								CHANNELS 3 Zrotation Yrotation Xrotation
								End Site
								{
									OFFSET 0.000000 0.000000 0.000000
								}
							}
						}
					}
				}
			}
		}
	}
}
MOTION
Frames: 8
Frame Time: 0.033333
0.247389 2.094548 0.982372 -6.585753 2.178205 86.995203 10.032070 0.555669 -31.284137 -5.921405 16.494234 58.321391 0.228541 10.929237 -8.981168 0.000000 -0.000000 0.000000 4.575541 -4.075270 -1.431004 5.659595 -1.474097 17.323153 -1.340975 -3.430608 -18.356780 0.000000 -0.000000 0.000000 -1.515909 5.591147 17.111313 3.076495 -3.346416 -1.487829 0.632016 0.299214 -0.503318 3.339771 2.228510 -3.189800 2.190907 -1.616071 16.487895 -24.770838 1.069927 0.453355 -53.445991 -6.407264 4.889601 18.348072 -25.281124 -3.262921 2.909261 -3.643557 -6.654606 22.119989 3.697310 2.303533 46.249455 9.024857 10.708335 -6.813998 26.585670 13.693131 8.615442 2.800994 -3.867386 
0.246878 2.064078 0.979592 -6.858715 1.882614 86.570850 9.879227 0.015468 -35.021017 -5.682083 16.700329 49.261743 1.008725 12.144735 -8.642640 0.000000 -0.000000 0.000000 3.522566 -5.543252 2.487123 5.817371 -0.115741 15.475744 -0.720160 -2.959683 -19.421555 0.000000 -0.000000 0.000000 -1.091449 6.724083 18.188195 2.690907 -3.718495 -2.472079 0.568624 0.598901 -0.088327 3.141643 2.239892 -3.022895 2.191955 -2.416837 16.754135 -24.936855 1.226203 -0.150016 -52.956484 -5.429709 5.120129 17.739709 -25.544002 -2.425136 2.989291 -3.291443 -6.465267 22.038337 3.843208 2.319491 45.505575 9.535327 10.788648 -6.125204 28.073718 13.812301 7.656287 2.178948 -3.395527 
0.246225 2.033220 0.975239 -7.439079 1.799291 86.621755 9.845784 0.105526 -37.272704 -6.442584 15.503057 37.212028 1.215005 11.739565 -7.365534 0.000000 -0.000000 0.000000 2.665897 -6.371140 5.681154 5.964660 1.075856 14.031952 -0.254860 -2.311485 -20.087290 0.000000 -0.000000 0.000000 -0.580668 7.634838 18.614213 2.190896 -3.708123 -3.025455 0.545483 0.838898 -0.006579 2.898292 2.362883 -2.760540 2.300183 -3.066777 17.005105 -24.941567 1.485301 -0.537620 -52.954970 -4.755736 5.352504 17.629998 -25.249596 -2.113328 2.960397 -3.258929 -6.519437 21.586747 4.148039 2.218102 45.337951 10.254414 10.790557 -5.391355 28.914735 14.091976 7.216434 2.483642 -3.821493 
0.246753 1.984202 0.966389 -8.078197 2.147798 87.181459 9.264436 0.743230 -38.844477 -7.038955 10.945596 18.485564 0.472746 9.319262 -1.900332 0.000000 -0.000000 0.000000 0.888089 -8.703170 10.113753 6.683366 3.132093 12.305462 0.051402 -1.316088 -19.476021 0.000000 -0.000000 0.000000 0.138197 8.834964 18.147895 1.761464 -3.574684 -2.674956 0.703238 1.286979 -0.650684 2.211856 1.973792 -1.869434 2.981616 -3.844057 16.366540 -25.081281 1.802719 -0.619844 -53.265787 -4.288241 6.574694 15.336944 -25.427595 -3.909269 9.830111 -1.814502 -13.301740 21.504737 4.535699 2.191154 44.286236 11.345712 11.236125 -4.595006 29.952229 13.628150 2.684110 2.583823 -2.116163 
0.246615 1.967101 0.962558 -8.408173 2.516032 87.513814 9.230917 1.602735 -39.530001 -6.808026 9.856629 14.363505 -0.936120 8.878085 -1.851670 0.000000 -0.000000 0.000000 0.537081 -9.396582 11.321758 6.813810 3.581498 11.965421 0.435792 -0.454294 -19.261732 0.000000 -0.000000 0.000000 0.512619 9.194801 17.894960 1.684839 -3.487734 -2.706480 0.733712 1.427536 -0.873054 2.264344 2.102706 -1.767928 2.908114 -4.255128 16.326697 -25.384364 1.903821 -0.728038 -52.995350 -3.911590 6.523752 15.277124 -25.602440 -3.728829 8.949131 -1.721348 -13.221151 21.628292 4.721650 2.164988 43.933443 11.603960 11.148978 -4.427010 30.312841 13.781576 3.055206 2.653033 -2.165582 
0.246340 1.931508 0.955502 -9.262495 2.975077 88.260391 9.033264 2.850808 -41.068295 -6.307303 8.997718 11.374017 -0.428249 8.197577 -2.244532 0.000000 -0.000000 0.000000 -0.272134 -10.115801 13.075095 6.786835 4.498416 12.476686 1.001206 1.053682 -18.797936 0.000000 -0.000000 0.000000 0.750876 9.748672 17.410602 1.592395 -3.254287 -3.464669 0.786994 1.589208 -0.943039 2.532797 2.405303 -1.990147 2.418329 -4.461162 17.063876 -25.864239 2.364021 -0.642598 -52.569813 -2.936655 5.387510 17.031998 -24.229052 -2.015015 3.695863 -2.620228 -8.114892 22.101633 5.344652 2.446535 43.694625 12.316203 10.713840 -5.057070 30.704891 13.894568 5.610665 3.140095 -2.220365 
0.246115 1.892702 0.949766 -10.221060 3.141190 88.730488 9.393184 2.359600 -41.382841 -6.424839 10.866295 13.005081 -0.054321 8.745829 -2.755129 0.000000 -0.000000 0.000000 -1.136756 -9.980952 14.647565 6.386077 5.862963 14.148208 1.904993 1.759898 -17.740269 0.000000 -0.000000 0.000000 0.187222 10.570573 16.488192 1.784855 -2.841720 -3.427573 0.929775 1.702132 -1.103438 2.842677 2.264511 -2.164870 2.340592 -4.394982 17.348115 -25.942288 2.619993 -0.479869 -52.615295 -2.430397 5.353201 17.162137 -23.478719 -2.136596 3.230434 -2.542021 -7.880592 22.569571 5.386581 2.397820 43.826719 13.038848 10.955686 -5.301197 30.867526 13.479821 6.270962 3.144975 -2.503373 
0.247667 1.850649 0.945120 -10.749771 2.833822 89.504987 9.178878 0.515676 -41.120743 -6.544146 11.754850 16.062486 1.410280 6.811694 -1.295774 0.000000 -0.000000 0.000000 -2.159158 -9.152148 15.692190 6.048778 6.969998 15.997788 3.311011 1.819085 -15.280936 0.000000 -0.000000 0.000000 -1.119351 11.157774 14.776926 2.185700 -2.479194 -3.238336 1.095091 1.670057 -1.224217 3.257609 1.708854 -1.977666 2.340257 -4.255567 17.314005 -25.981479 3.020450 0.003203 -52.729770 -2.305046 5.548178 17.006551 -22.198326 -1.737528 3.383188 -2.271794 -7.202292 23.152691 5.186808 2.431643 44.200056 13.267810 11.738224 -6.299408 31.296356 12.529210 6.251999 2.921565 -2.586426 
